<svg xmlns="http://www.w3.org/2000/svg" version="1.1" xmlns:xlink="http://www.w3.org/1999/xlink" xmlns:svgjs="http://svgjs.dev/svgjs" width="128" height="128" viewBox="0 0 128 128"><g transform="matrix(0.6358024691358025,0,0,0.6358024691358025,23.09420304157004,12.760752631578946)"><svg viewBox="0 0 75 95" data-background-color="#e3e2e2" preserveAspectRatio="xMidYMid meet" height="162" width="128" xmlns="http://www.w3.org/2000/svg" xmlns:xlink="http://www.w3.org/1999/xlink"><g id="tight-bounds" transform="matrix(1,0,0,1,0.1976208316841621,-0.24049999999999727)"><svg viewBox="0 0 74.60475833663168 95.481" height="95.481" width="74.60475833663168"><g><svg viewBox="0 0 74.60475833663168 95.481" height="95.481" width="74.60475833663168"><g><svg viewBox="0 0 74.60475833663168 95.481" height="95.481" width="74.60475833663168"><g id="textblocktransform"><svg viewBox="0 0 74.60475833663168 95.481" height="95.481" width="74.60475833663168" id="textblock"><g><svg viewBox="0 0 74.60475833663168 95.481" height="95.481" width="74.60475833663168"><g><svg viewBox="0 0 74.60475833663168 95.481" height="95.481" width="74.60475833663168"><g><svg xmlns="http://www.w3.org/2000/svg" xmlns:xlink="http://www.w3.org/1999/xlink" version="1.1" x="0" y="0" viewBox="14.839999783857403 5.000178911635624 70.3220002161426 89.99982108836437" enable-background="new 0 0 100 100" xml:space="preserve" height="95.481" width="74.60475833663168" class="icon-icon-0" data-fill-palette-color="accent" id="icon-0"><path fill="#282828" d="M23.817 41.255v15.902c0 1.074 0.592 2.063 1.541 2.568 6.975 3.73 15.496 5.705 24.641 5.705 8.424 0 17.152-1.668 23.346-4.46 1.047-0.471 1.718-1.511 1.718-2.656V42.648c6.286-2.656 10.099-8.93 10.099-16.888 0-10.068-8.196-18.261-18.268-18.261-2.035 0-4.024 0.33-5.922 0.982C54.654 3.795 45.337 3.841 39.06 8.615c-1.857-0.603-3.791-0.907-5.773-0.907-10.173 0-18.447 8.099-18.447 18.052C14.839 32.125 18.308 38.018 23.817 41.255zM33.286 13.537c1.799 0 3.541 0.361 5.175 1.078 1.07 0.467 2.307 0.258 3.155-0.542 4.594-4.289 12.253-4.319 16.87-0.091 0.87 0.789 2.122 0.986 3.191 0.493 1.645-0.759 3.397-1.146 5.216-1.146 6.861 0 12.438 5.579 12.438 12.433 0 6.17-2.971 10.657-7.945 12.004-1.269 0.342-2.153 1.496-2.153 2.812v15.791C63.933 58.378 56.761 59.6 49.999 59.6c-7.402 0-14.555-1.497-20.352-4.238V39.487c0-1.142-0.668-2.182-1.708-2.652-4.417-2.008-7.271-6.353-7.271-11.074C20.667 19.02 26.328 13.537 33.286 13.537z" data-fill-palette-color="accent"></path><path fill="#282828" d="M78.312 82.438c-0.041 0.031-0.739 0.517-1.897 1.218-1.354 0.649-3.813 1.102-5.62-0.211-3.499-2.585-7.381-3.944-11.529-4.172 0.054-0.412 0.125-0.827 0.125-1.256 0-5.18-4.216-9.393-9.392-9.393-5.177 0-9.389 4.213-9.389 9.393 0 0.429 0.07 0.844 0.126 1.256-4.149 0.228-8.031 1.587-11.515 4.159-1.848 1.337-4.287 0.873-5.636 0.224-1.159-0.701-1.855-1.187-1.897-1.218-1.27-0.899-3.018-0.638-3.975 0.581-0.958 1.223-0.791 2.979 0.379 4 0.112 0.096 1.122 0.955 2.689 1.754C24.71 91.125 32.29 95 39.584 95c0.001 0 0.001 0 0.001 0 4.121 0 7.636-1.229 10.414-3.605C52.777 93.771 56.289 95 60.411 95c7.298 0 14.876-3.875 18.807-6.227 1.568-0.799 2.578-1.658 2.688-1.754 1.173-1.021 1.34-2.777 0.379-4C81.332 81.806 79.583 81.539 78.312 82.438zM49.998 74.453c1.965 0 3.564 1.599 3.564 3.564 0 1.962-1.599 3.56-3.564 3.56-1.962 0-3.56-1.598-3.56-3.56C46.438 76.052 48.036 74.453 49.998 74.453zM39.585 89.172c-2.208 0-4.523-0.486-6.711-1.191 2.753-1.97 5.791-2.97 9.034-2.97 0.736 0 1.424 0.062 2.076 0.156 0.682 0.574 1.421 1.075 2.245 1.439 0.038 0.061 0.074 0.124 0.111 0.189C44.582 88.367 42.388 89.172 39.585 89.172zM60.411 89.172c-2.801 0-4.995-0.805-6.751-2.376 0.033-0.065 0.072-0.129 0.11-0.194 0.823-0.363 1.563-0.86 2.241-1.435 0.656-0.095 1.34-0.156 2.076-0.156 3.241 0 6.271 0.994 9.036 2.973C64.936 88.686 62.619 89.172 60.411 89.172z" data-fill-palette-color="accent"></path><circle fill="#282828" cx="37.612" cy="69.677" r="3.6" data-fill-palette-color="accent"></circle><circle fill="#282828" cx="62.385" cy="69.677" r="3.6" data-fill-palette-color="accent"></circle></svg></g></svg></g></svg></g></svg></g></svg></g></svg></g><defs></defs></svg><rect width="74.60475833663168" height="95.481" fill="none" stroke="none" visibility="hidden"></rect></g></svg></g></svg>